<svg width="1600" height="900" viewBox="0 0 1600 900" fill="none" xmlns="http://www.w3.org/2000/svg" role="img" aria-labelledby="title desc">
  <title id="title">Aether Courier preview artwork</title>
  <desc id="desc">Fast courier lanes with bright checkpoints and dark sci-fi city backdrop.</desc>
  <defs>
    <linearGradient id="bg" x1="0" y1="0" x2="1600" y2="900">
      <stop stop-color="#04111F"/>
      <stop offset="1" stop-color="#0F172A"/>
    </linearGradient>
    <linearGradient id="lane" x1="0" y1="0" x2="1" y2="1">
      <stop stop-color="#22D3EE"/>
      <stop offset="1" stop-color="#F43F5E"/>
    </linearGradient>
  </defs>
  <rect width="1600" height="900" fill="url(#bg)"/>
  <g fill="#1F2937">
    <rect x="150" y="250" width="110" height="320"/>
    <rect x="300" y="190" width="130" height="380"/>
    <rect x="470" y="280" width="120" height="290"/>
    <rect x="1210" y="210" width="120" height="360"/>
    <rect x="1370" y="260" width="90" height="310"/>
  </g>
  <path d="M0 760C260 700 360 820 620 760C870 705 1020 610 1290 640C1430 654 1530 690 1600 730V900H0V760Z" fill="#111827"/>
  <path d="M120 780L540 710L990 760L1450 700" stroke="url(#lane)" stroke-width="14" stroke-linecap="round"/>
  <g fill="#F8FAFC" fill-opacity=".9">
    <circle cx="540" cy="710" r="12"/>
    <circle cx="990" cy="760" r="12"/>
    <circle cx="1450" cy="700" r="12"/>
  </g>
</svg>
