<svg width="1600" height="900" viewBox="0 0 1600 900" fill="none" xmlns="http://www.w3.org/2000/svg" role="img" aria-labelledby="title desc">
  <title id="title">Skyline Jet preview artwork</title>
  <desc id="desc">Cool blue sky with stylized jet and cloud trails.</desc>
  <defs>
    <linearGradient id="sky" x1="0" y1="0" x2="0" y2="900">
      <stop stop-color="#0EA5E9"/>
      <stop offset="1" stop-color="#0F172A"/>
    </linearGradient>
  </defs>
  <rect width="1600" height="900" fill="url(#sky)"/>
  <ellipse cx="380" cy="230" rx="260" ry="110" fill="#E0F2FE" fill-opacity=".24"/>
  <ellipse cx="1210" cy="190" rx="220" ry="95" fill="#DBEAFE" fill-opacity=".22"/>
  <path d="M760 490L1010 450L1220 520L1000 550L850 610L760 490Z" fill="#E2E8F0"/>
  <path d="M920 465L1090 370L1190 400L1030 490L920 465Z" fill="#CBD5E1"/>
  <path d="M800 520L640 640L780 600L930 560L800 520Z" fill="#94A3B8"/>
  <path d="M1220 520C1310 550 1420 610 1540 730" stroke="#E0F2FE" stroke-width="10" stroke-linecap="round" opacity=".75"/>
  <path d="M970 510C1040 560 1120 640 1230 780" stroke="#BFDBFE" stroke-width="8" stroke-linecap="round" opacity=".65"/>
  <rect y="700" width="1600" height="200" fill="#0B1225" fill-opacity=".75"/>
</svg>
